<svg id="Layer_1" data-name="Layer 1" xmlns="http://www.w3.org/2000/svg" xmlns:xlink="http://www.w3.org/1999/xlink" viewBox="0 0 1080 1080"><defs><style>.cls-1{fill:url(#linear-gradient);}.cls-2{fill:#fff;}</style><linearGradient id="linear-gradient" x1="693.51" y1="742.84" x2="367.47" y2="250.14" gradientUnits="userSpaceOnUse"><stop offset="0.04" stop-color="#06634d"/><stop offset="1" stop-color="#06a8bd"/></linearGradient></defs><path class="cls-1" d="M877.91,667.92V329.36a52.78,52.78,0,0,0-26.4-45.72L558.31,114.36a52.81,52.81,0,0,0-52.8,0L212.31,283.64a52.81,52.81,0,0,0-26.4,45.72V667.92a52.81,52.81,0,0,0,26.4,45.73l293.2,169.28a52.81,52.81,0,0,0,52.8,0l293.2-169.28A52.79,52.79,0,0,0,877.91,667.92Z"/><g id="SVGRepo_iconCarrier" data-name="SVGRepo iconCarrier"><path class="cls-2" d="M688.23,254.39H375.6a48.9,48.9,0,0,0-48.86,48.85V694.06A48.9,48.9,0,0,0,375.6,742.9H688.23a48.9,48.9,0,0,0,48.86-48.84V303.25A48.9,48.9,0,0,0,688.23,254.39Zm29.33,439.67a29.35,29.35,0,0,1-29.33,29.31H375.6a29.33,29.33,0,0,1-29.31-29.31V303.25a29.34,29.34,0,0,1,29.31-29.31H688.23a29.35,29.35,0,0,1,29.31,29.31V694.06Z"/><path class="cls-2" d="M634.94,468h-206a9,9,0,0,0,0,18h206a9,9,0,0,0,0-18Z"/><path class="cls-2" d="M634.94,508.9h-206a9,9,0,0,0,0,18h206a9,9,0,0,0,0-18Z"/><path class="cls-2" d="M634.94,549.8h-206a9,9,0,0,0,0,18h206a9,9,0,0,0,0-18Z"/><path class="cls-2" d="M634.94,590.71h-103a9,9,0,1,0,0,18h103a9,9,0,0,0,0-18Z"/><path class="cls-2" d="M634.94,671.51H562.82a9,9,0,1,0,0,17.94h72.12a9,9,0,0,0,0-17.94Z"/><path class="cls-2" d="M541.92,428.54c0-17-19.55-39.89-45.94-46.59,11-7.41,18.62-22.06,18.62-35.24a33.68,33.68,0,1,0-67.35,0c0,13.17,7.59,27.82,18.6,35.24-26.36,6.69-45.92,29.62-45.92,46.59C420,448.6,541.92,448.6,541.92,428.54Zm-63.71-36.81h-.15l-5.58-6.41a23.81,23.81,0,0,0,16.9,0l-5.59,6.39h-.14L498,426.5l-17.11,17.07-17.1-17.07Z"/></g></svg>